<svg width="258" height="61" viewBox="0 0 258 61" fill="none" xmlns="http://www.w3.org/2000/svg">
<g clip-path="url(#clip0_1_11)">
<path d="M28.5688 17.0833C26.2321 13.7904 22.4746 12.0739 18.0478 12.0739C9.62862 12.0739 0 18.2042 0 31.0722C0 42.9592 8.26652 50.9579 20.0792 50.9579C31.8919 50.9579 39.8531 43.5547 39.8531 31.1422V1.65812H28.5806V17.0833H28.5688ZM19.997 40.4837C14.8891 40.4837 11.4252 36.8172 11.4252 31.5159C11.4252 26.2146 14.8891 22.548 19.997 22.548C25.1049 22.548 28.5688 26.2146 28.5688 31.5159C28.5688 36.8172 25.1049 40.4837 19.997 40.4837ZM50.3389 0C46.2056 0 43.1174 3.07102 43.1174 7.18128C43.1174 11.2915 46.2056 14.3626 50.3389 14.3626C54.4721 14.3626 57.5604 11.2915 57.5604 7.18128C57.5604 3.07102 54.4721 0 50.3389 0ZM44.7026 49.9887H55.9751V17.7255H44.7026V49.9887ZM61.2357 49.9887H72.5199V1.65812H61.2357V49.9887ZM77.0642 49.9887H88.3367V1.65812H77.0642V49.9887ZM124.937 12.0739C113.582 12.0739 105.163 19.477 105.163 31.8895V61H116.448V45.9485C118.773 49.2414 122.542 50.9579 126.969 50.9579C135.388 50.9579 145.016 44.8275 145.016 31.9713C145.016 20.0842 136.75 12.0856 124.937 12.0856V12.0739ZM125.008 40.4837C119.9 40.4837 116.436 36.8172 116.436 31.5159C116.436 26.2146 119.9 22.548 125.008 22.548C130.116 22.548 133.579 26.2146 133.579 31.5159C133.579 36.8172 130.116 40.4837 125.008 40.4837ZM149.208 49.977H160.493V29.3907H149.208V49.977ZM154.845 11.6652C150.711 11.6652 147.623 14.7362 147.623 18.8465C147.623 22.9567 150.711 26.0278 154.845 26.0278C158.978 26.0278 162.066 22.9567 162.066 18.8465C162.066 14.7362 158.978 11.6652 154.845 11.6652ZM204.479 13.0431H191.316L184.47 24.7783L177.625 13.0431H164.168L176.204 31.0605L163.569 49.977H176.732L184.177 37.2609L191.621 49.977H205.078L192.373 31.0605L204.479 13.0431ZM223.255 12.0739C211.524 12.0739 203.258 20.2944 203.258 31.5159C203.258 42.7374 211.524 50.9579 223.255 50.9579C232.508 50.9579 239.576 45.8784 241.972 38.2418H230.312C228.879 40.2619 226.472 40.9391 223.243 40.9391C219.18 40.9391 215.869 39.0008 214.977 34.657H243.017V31.5159C243.017 20.3061 234.974 12.0739 223.243 12.0739H223.255ZM215.211 27.5574C216.339 23.8208 219.345 22.1043 223.255 22.1043C227.165 22.1043 230.171 23.7508 231.451 27.5574H215.211ZM246.727 1.65812V49.9887H258V1.65812H246.727Z" fill="#8AC733"/>
</g>
<defs>
<clipPath id="clip0_1_11">
<rect width="258" height="61" fill="white"/>
</clipPath>
</defs>
</svg>
